<?xml version="1.0" encoding="UTF-8" standalone="no"?>
<svg xmlns:rdf="http://www.w3.org/1999/02/22-rdf-syntax-ns#" xmlns="http://www.w3.org/2000/svg" xml:space="preserve" height="460" width="460" version="1.1" xmlns:cc="http://creativecommons.org/ns#" xmlns:dc="http://purl.org/dc/elements/1.1/" viewBox="0 0 460 460"><path d="m-0.0019531-0.0039062v460h460v-460l-460-0.0039062zm230 48.934c100.31 0 181.07 80.76 181.07 181.07s-80.76 181.07-181.07 181.07-181.07-80.76-181.07-181.07 80.76-181.07 181.07-181.07zm-50.98 128.57c-0.59 0-1.17 0.03-1.75 0.05h-85.118l35.878 25.99-3.96-0.01h-20.73l21.35 20.6c-0.41 2.71-0.62 5.5-0.62 8.33 0 16.55 7.33 31.38 18.9 41.46l-0.01 0.01 0.3 0.23c1.2 1.03 2.44 2 3.72 2.92l32.04 25.15v-10.3l50.09 35 50.09-35v10.3l32.04-25.15c1.27-0.92 2.51-1.89 3.7-2.91l0.31-0.24-0.01-0.01c11.58-10.08 18.91-24.91 18.91-41.46 0-2.3-0.18-4.55-0.46-6.77l22.97-22.17h-20.73l-3.96 0.02 35.88-26h-87.78c-0.29 0-0.58-0.04-0.87-0.04-22.29 0-41.47 13.28-50.09 32.35-8.39-18.56-26.78-31.62-48.31-32.3h-0.02c-0.58-0.02-1.17-0.05-1.76-0.05zm100.18 35.58c10.7 0 19.38 8.67 19.38 19.38 0 10.7-8.68 19.38-19.38 19.38-10.71 0-19.39-8.68-19.39-19.38 0-10.71 8.68-19.38 19.39-19.38zm-100.18 0.28c10.55 0 19.1 8.55 19.1 19.1s-8.55 19.1-19.1 19.1-19.1-8.55-19.1-19.1 8.55-19.1 19.1-19.1zm50.09 30.57c2.9 9.21 9.81 16.64 18.71 20.2l-17.29 35.91v-23.74c2.05-0.69 3.54-2.61 3.54-4.9 0-2.79-2.21-5.04-4.96-5.17-2.76 0.13-4.96 2.38-4.96 5.17 0 2.29 1.48 4.21 3.53 4.9v23.74l-17.29-35.91c8.91-3.56 15.81-10.99 18.72-20.2z"/></svg>
