<?xml version="1.0" encoding="UTF-8" standalone="no"?>
<svg xmlns:rdf="http://www.w3.org/1999/02/22-rdf-syntax-ns#" xmlns="http://www.w3.org/2000/svg" xml:space="preserve" height="148.05" viewBox="0 0 500 148.048" width="500" version="1.1" xmlns:cc="http://creativecommons.org/ns#" xmlns:dc="http://purl.org/dc/elements/1.1/"><g transform="matrix(1.25 0 0 -1.25 0 148.05)"><path d="m369.65 0.023438l0.08 23.946c2.01 0.235 3.52 2.121 2.94 4.312-0.3 1.132-1.22 2.061-2.35 2.369-2.32 0.634-4.42-1.094-4.42-3.314 0-1.759 1.34-3.155 3.04-3.365l-0.08-23.944-0.23 0.000344c-0.21 0-0.38 0.17246-0.37 0.38086v0.6602c-0.5 9.1756-11.28 25.743-11.28 25.743l3.66 12.171c1.09 3.63 4.44 6.111 8.23 6.098l0.54-0.002 0.54-0.002c3.79-0.013 7.12-2.514 8.19-6.152l3.58-12.195s-10.89-16.494-11.45-25.666v-0.0005-0.66016c0-0.20983-0.17-0.38033-0.38-0.3789l-0.24-0.000002zm-277.94 15.78c-2.544 0-4.814 0.988-6.561 2.859-1.73 1.849-2.607 4.062-2.607 6.572v82.736c0 2.52 0.876 4.73 2.603 6.58 1.748 1.87 4.018 2.86 6.565 2.86 2.632 0 4.908-0.95 6.766-2.8 1.861-1.86 2.801-4.09 2.801-6.64v-82.736c0-2.542-0.94-4.773-2.803-6.634-1.857-1.856-4.133-2.797-6.764-2.797zm334.27 0.527c-8.95 0-15.81 2.81-20.39 8.352-4.46 5.394-6.73 12.855-6.73 22.172v3.128h-4.29c-2.18 0-4.11 0.796-5.74 2.368-1.64 1.574-2.5 3.651-2.5 6.007 0 2.204 0.87 4.179 2.54 5.715 1.63 1.503 3.54 2.264 5.7 2.264h4.29v41.634c0 2.55 0.94 4.79 2.8 6.64 1.86 1.86 4.13 2.8 6.77 2.8 2.54 0 4.81-0.99 6.56-2.86 1.73-1.85 2.6-4.06 2.6-6.58v-41.634h6.28c2.15 0 4.07-0.759 5.7-2.264 1.66-1.538 2.54-3.514 2.54-5.715 0-2.352-0.87-4.428-2.51-6.009-1.63-1.569-3.56-2.366-5.73-2.366h-6.28v-3.105c0-10.823 4.48-12.211 8.39-12.211h1.05c2.53 0 4.8-0.966 6.55-2.793 1.74-1.82 2.62-4.033 2.62-6.576 0-2.468-0.96-4.68-2.79-6.402-1.8-1.702-3.95-2.565-6.38-2.565h-1.05zm-415.96 4.356c-2.8958 0-5.3041 0.941-7.1598 2.796-1.8556 1.857-2.7988 4.356-2.7988 7.426l0.000006 75.622c0 2.97 0.93389 5.43 2.7695 7.32 1.8571 1.92 4.2747 2.9 7.1891 2.9h30.221c8.956 0 16.259-2.86 21.709-8.51 5.427-5.62 8.178-12.588 8.178-20.719 0-5.267-1.689-10.338-5.022-15.07-2.185-3.104-4.861-5.494-7.988-7.144 5.398-3.929 8.127-9.97 8.127-18.034 0-8.084-2.556-14.615-7.596-19.416-5.006-4.759-11.795-7.171-20.179-7.171h-27.45zm9.168 18.07h16.78c3.15 0 5.502 0.765 7.189 2.344 1.637 1.528 2.434 3.721 2.434 6.699 0 3.03-0.789 5.482-2.412 7.492-1.488 1.843-3.542 2.74-6.284 2.74h-17.707v-19.275zm128.61 9.906c-9.61 0-17.87 3.211-24.54 9.549-6.7 6.37-10.1 14.766-10.1 24.955 0 10.179 3.39 18.634 10.08 25.134 6.67 6.48 14.93 9.77 24.56 9.77 9.62 0 17.92-3.28 24.67-9.76 6.79-6.5 10.23-14.96 10.23-25.144 0-10.192-3.42-18.588-10.18-24.961-6.71-6.332-15.03-9.543-24.72-9.543zm76.93 0c-9.28 0-17.3 3.268-23.84 9.711-6.55 6.458-9.87 14.932-9.87 25.189 0 10.181 3.33 18.568 9.88 24.938 6.54 6.35 14.56 9.57 23.83 9.57 4.79 0 9.41-1.13 13.72-3.36 1.66-0.86 3.15-1.85 4.46-2.98-0.83 12.59-6.58 18.49-17.91 18.49-5.19 0-9.44-1.93-13.04-5.92-1.62-1.74-3.56-2.8-5.75-3.16-0.49-0.08-0.97-0.11-1.45-0.11-1.76 0-3.46 0.52-5.1 1.59-2.03 1.39-3.23 3.45-3.48 5.95-0.24 2.41 0.37 4.61 1.88 6.63 6.9 8.51 15.97 12.82 26.94 12.82 24.2 0 36.52-14.27 36.61-42.41l0.13-46.856c0-2.541-0.94-4.774-2.79-6.637-1.86-1.854-4.14-2.797-6.77-2.797-2.54 0-4.81 0.992-6.56 2.862-0.88 0.942-1.54 1.977-1.98 3.099-1.58-1.394-3.43-2.595-5.53-3.597-4.2-2.006-8.7-3.022-13.38-3.022zm82.61 0c-9.28 0-17.3 3.268-23.84 9.711-6.55 6.458-9.87 14.932-9.87 25.189 0 10.181 3.32 18.568 9.88 24.938 6.54 6.35 14.56 9.57 23.83 9.57 4.79 0 9.41-1.13 13.72-3.36 1.66-0.86 3.15-1.85 4.46-2.98-0.83 12.59-6.58 18.49-17.91 18.49-5.19 0-9.44-1.93-13.04-5.92-1.62-1.74-3.56-2.8-5.76-3.16-0.48-0.08-0.97-0.11-1.44-0.11-1.76 0-3.46 0.52-5.1 1.59-2.03 1.39-3.23 3.45-3.48 5.95-0.25 2.41 0.37 4.61 1.88 6.63 6.9 8.51 15.96 12.82 26.94 12.82 24.2 0 36.52-14.27 36.61-42.41l0.13-46.856c0-2.541-0.94-4.774-2.8-6.637-1.86-1.854-4.13-2.797-6.76-2.797-2.54 0-4.81 0.992-6.56 2.862-0.88 0.942-1.54 1.977-1.98 3.099-1.58-1.394-3.43-2.595-5.53-3.597-4.2-2.006-8.7-3.022-13.38-3.022zm61.37 0.66c-2.55 0-4.82 0.988-6.57 2.86-1.73 1.848-2.6 4.059-2.6 6.57v49.228c0 2.51 0.87 4.72 2.6 6.57 1.75 1.87 4.02 2.86 6.57 2.86 2.63 0 4.91-0.94 6.76-2.8 1.86-1.86 2.8-4.09 2.8-6.63v-49.228c0-2.542-0.94-4.773-2.8-6.633-1.86-1.857-4.13-2.797-6.76-2.797zm77.65 0.028c-0.81 0-1.65 0.106-2.47 0.314-2.49 0.621-4.44 2.258-5.65 4.729-1.2 2.459-1.31 4.998-0.33 7.326l20.58 49.571-9.64 23.71c-0.97 2.42-0.85 4.97 0.35 7.38 1.21 2.42 3.16 4.02 5.64 4.64 0.83 0.21 1.66 0.31 2.47 0.31 1.49 0 2.94-0.34 4.31-1.03 2.16-1.07 3.73-2.81 4.66-5.14l32.99-79.43c0.98-2.34 0.87-4.877-0.33-7.337-1.21-2.471-3.15-4.107-5.64-4.729-0.83-0.208-1.66-0.314-2.48-0.314-1.48 0-2.94 0.348-4.31 1.033-2.16 1.079-3.72 2.821-4.66 5.152l-13.31 32.451-13.2-32.433c-0.94-2.353-2.52-4.093-4.67-5.17-1.37-0.685-2.82-1.033-4.31-1.033zm-298.56 17.646c4.63 0 8.44 1.474 11.62 4.504 3.15 3 4.68 6.816 4.68 11.666 0 4.953-1.54 8.862-4.7 11.951-3.19 3.106-6.98 4.615-11.6 4.615-4.53 0-8.26-1.504-11.39-4.603-3.13-3.086-4.65-7-4.65-11.963 0-4.859 1.51-8.679 4.62-11.678 3.14-3.022 6.88-4.492 11.42-4.492zm78.52 0c4.74 0 8.59 1.434 11.78 4.383 3.13 2.895 4.65 6.816 4.65 11.986 0 4.98-1.62 8.848-4.95 11.828-3.41 3.055-7.17 4.541-11.48 4.541-4.63 0-8.41-1.483-11.54-4.535-3.12-3.027-4.63-6.899-4.63-11.834 0-4.85 1.52-8.706 4.64-11.781 3.14-3.086 6.91-4.588 11.53-4.588zm82.6 0c4.74 0 8.6 1.434 11.79 4.383 3.13 2.895 4.65 6.816 4.65 11.986 0 4.98-1.62 8.848-4.95 11.828-3.41 3.055-7.17 4.541-11.49 4.541-4.62 0-8.4-1.483-11.53-4.535-3.12-3.027-4.63-6.899-4.63-11.834 0-4.85 1.52-8.706 4.64-11.781 3.13-3.086 6.9-4.588 11.52-4.588zm-289.73 8.184h19.866c3.27 0 5.859 1.205 7.918 3.687 2.178 2.628 3.238 5.417 3.238 8.522 0 3.087-0.986 5.736-3.01 8.091-1.924 2.241-4.46 3.329-7.75 3.329h-20.262v-23.629z" transform="matrix(.8 0 0 -.8 0 118.44)"/></g></svg>
